<svg width="21" height="20" viewBox="0 0 21 20" fill="none" xmlns="http://www.w3.org/2000/svg">
<path d="M16.7236 4.16667H15.8902V2.50001C15.8902 2.27899 15.8024 2.06703 15.6461 1.91075C15.4899 1.75447 15.2779 1.66667 15.0569 1.66667C14.8359 1.66667 14.6239 1.75447 14.4676 1.91075C14.3113 2.06703 14.2236 2.27899 14.2236 2.50001V4.16667H7.55688V2.50001C7.55688 2.27899 7.46909 2.06703 7.31281 1.91075C7.15653 1.75447 6.94457 1.66667 6.72355 1.66667C6.50254 1.66667 6.29058 1.75447 6.1343 1.91075C5.97802 2.06703 5.89022 2.27899 5.89022 2.50001V4.16667H5.05688C4.39384 4.16667 3.75796 4.43006 3.28912 4.89891C2.82028 5.36775 2.55688 6.00363 2.55688 6.66667V7.50001H19.2236V6.66667C19.2236 6.00363 18.9602 5.36775 18.4913 4.89891C18.0225 4.43006 17.3866 4.16667 16.7236 4.16667Z" fill="#212224"/>
<path d="M2.55688 15.8333C2.55688 16.4964 2.82028 17.1323 3.28912 17.6011C3.75796 18.0699 4.39384 18.3333 5.05688 18.3333H16.7236C17.3866 18.3333 18.0225 18.0699 18.4913 17.6011C18.9602 17.1323 19.2236 16.4964 19.2236 15.8333V9.16667H2.55688V15.8333Z" fill="#212224"/>
</svg>
