<svg width="25" height="25" viewBox="0 0 25 25" fill="none" xmlns="http://www.w3.org/2000/svg">
<path d="M11.2203 17.0929H4.91958M14.0306 7.40038H20.3313M9.61642 7.34625C9.61642 6.0506 8.55826 5 7.25328 5C5.9483 5 4.89014 6.0506 4.89014 7.34625C4.89014 8.64191 5.9483 9.69251 7.25328 9.69251C8.55826 9.69251 9.61642 8.64191 9.61642 7.34625ZM20.8901 17.0537C20.8901 15.7581 19.8328 14.7075 18.5278 14.7075C17.222 14.7075 16.1638 15.7581 16.1638 17.0537C16.1638 18.3494 17.222 19.4 18.5278 19.4C19.8328 19.4 20.8901 18.3494 20.8901 17.0537Z" stroke="#1F7BF4" stroke-width="1.5" stroke-linecap="round" stroke-linejoin="round"/>
</svg>
