<svg width="24" height="23" viewBox="0 0 24 23" fill="none" xmlns="http://www.w3.org/2000/svg">
<path d="M3.67118 2.83225C3.67054 2.83225 3.66981 2.83225 3.66916 2.83225C3.44217 2.83225 3.22868 2.92074 3.06747 3.08154C2.90448 3.24413 2.8147 3.46062 2.8147 3.69108V16.5691C2.8147 17.0413 3.2004 17.4265 3.67458 17.4277C5.67362 17.4325 9.0228 17.8491 11.3333 20.267V6.78976C11.3333 6.62968 11.2924 6.47929 11.2152 6.35485C9.31888 3.30094 5.67475 2.83694 3.67118 2.83225Z" fill="black"/>
<path d="M21.1852 16.5691V3.691C21.1852 3.46054 21.0955 3.24405 20.9325 3.08146C20.7713 2.92066 20.5576 2.83217 20.3309 2.83217C20.3301 2.83217 20.3294 2.83217 20.3288 2.83217C18.3253 2.83694 14.6811 3.30094 12.7847 6.35485C12.7076 6.47929 12.6667 6.62968 12.6667 6.78976V20.2669C14.9772 17.849 18.3264 17.4324 20.3254 17.4276C20.7995 17.4264 21.1852 17.0413 21.1852 16.5691Z" fill="black"/>
<path d="M23.1413 5.80212H22.5186V16.5691C22.5186 17.7748 21.5362 18.758 20.3286 18.761C18.633 18.7651 15.8372 19.0966 13.8572 20.9707C17.2817 20.1322 20.8917 20.6772 22.9491 21.1461C23.206 21.2046 23.4714 21.1442 23.6773 20.9801C23.8823 20.8165 24 20.5719 24 20.3093V6.66079C24.0001 6.18733 23.6148 5.80212 23.1413 5.80212Z" fill="black"/>
<path d="M1.48138 16.5691V5.80212H0.85867C0.385294 5.80212 0 6.18733 0 6.66079V20.3091C0 20.5717 0.117657 20.8162 0.322749 20.9799C0.528406 21.1438 0.793619 21.2045 1.05091 21.1458C3.10829 20.6769 6.71841 20.1319 10.1427 20.9704C8.16278 19.0965 5.36697 18.765 3.67137 18.761C2.46385 18.758 1.48138 17.7748 1.48138 16.5691Z" fill="black"/>
</svg>
