<svg width="22" height="22" viewBox="0 0 22 22" fill="none" xmlns="http://www.w3.org/2000/svg">
<path d="M13.8552 4.31729C14.0772 3.88158 14.6138 3.70437 15.0222 3.97327C16.2614 4.78913 17.2538 5.93821 17.8799 7.29619C18.63 8.92336 18.8105 10.7557 18.3922 12.4979C17.9739 14.2402 16.9813 15.7908 15.5742 16.9001C14.1671 18.0094 12.4275 18.6126 10.6358 18.6126C8.84403 18.6126 7.10446 18.0094 5.69737 16.9001C4.29028 15.7909 3.29762 14.2402 2.87935 12.4979C2.46107 10.7557 2.64153 8.92337 3.39166 7.29621C4.0177 5.93822 5.01009 4.78914 6.2493 3.97328C6.65773 3.70438 7.19432 3.88159 7.41633 4.3173C7.63833 4.75301 7.46037 5.28132 7.06066 5.56302C6.17218 6.18919 5.45924 7.0411 4.99985 8.03759C4.41625 9.30353 4.27585 10.7291 4.60127 12.0845C4.92669 13.44 5.69898 14.6464 6.7937 15.5094C7.88841 16.3724 9.2418 16.8417 10.6358 16.8417C12.0298 16.8417 13.3831 16.3724 14.4779 15.5094C15.5726 14.6464 16.3449 13.44 16.6703 12.0845C16.9957 10.7291 16.8553 9.30351 16.2717 8.03758C15.8123 7.04109 15.0993 6.18918 14.2109 5.56302C13.8112 5.28131 13.6332 4.753 13.8552 4.31729Z" fill="#999999"/>
<path fill-rule="evenodd" clip-rule="evenodd" d="M10.6358 1.77264C11.1253 1.77264 11.5221 2.16946 11.5221 2.65896V7.09053C11.5221 7.58003 11.1253 7.97684 10.6358 7.97684C10.1463 7.97684 9.74951 7.58003 9.74951 7.09053V2.65896C9.74951 2.16946 10.1463 1.77264 10.6358 1.77264Z" fill="#999999"/>
</svg>
