<svg width="20" height="21" viewBox="0 0 20 21" fill="none" xmlns="http://www.w3.org/2000/svg">
<path d="M8.5 3.12061C11.538 3.12061 14 5.58261 14 8.62061C14 9.95961 13.522 11.1866 12.727 12.1406L16.854 16.2676C17.049 16.4626 17.049 16.7796 16.854 16.9746C16.68 17.1476 16.411 17.1676 16.216 17.0326L16.147 16.9746L12.02 12.8476C11.066 13.6426 9.839 14.1206 8.5 14.1206C5.462 14.1206 3 11.6586 3 8.62061C3 5.58261 5.462 3.12061 8.5 3.12061ZM8.5 4.12061C6.015 4.12061 4 6.13561 4 8.62061C4 11.1056 6.015 13.1206 8.5 13.1206C10.985 13.1206 13 11.1056 13 8.62061C13 6.13561 10.985 4.12061 8.5 4.12061Z" fill="#656262"/>
</svg>
