<svg width="24" height="24" viewBox="0 0 24 24" fill="none" xmlns="http://www.w3.org/2000/svg">
<path d="M18.6511 15.5272C17.6071 14.7337 16.3546 14.157 14.9888 13.8112C16.7206 12.5925 17.8883 10.3575 17.8883 7.79925C17.8883 7.46325 17.8606 7.1265 17.8201 6.7905L18.7321 6.393V8.81175C18.7321 9.1845 19.0343 9.48675 19.4071 9.48675C19.7798 9.48675 20.0821 9.1845 20.0821 8.81175V5.67075C20.2418 5.4795 20.3431 5.24175 20.3431 4.98225C20.3431 4.55175 20.0881 4.16175 19.6936 3.99L12.8206 0.995999C12.2986 0.768749 11.7008 0.768749 11.1803 0.995999L4.30731 3.99C3.91206 4.16175 3.65706 4.55175 3.65706 4.98225C3.65706 5.41275 3.91206 5.80275 4.30731 5.9745L6.17781 6.78975C6.13806 7.12125 6.11256 7.45425 6.11256 7.8C6.11256 10.3567 7.27881 12.5917 9.00906 13.8105C7.64181 14.1555 6.38856 14.733 5.34681 15.5272C4.24731 16.3635 3.59106 17.7262 3.59106 19.1715V21.1267C3.59106 22.2563 4.50981 23.1742 5.63781 23.1742H18.3616C19.4903 23.1742 20.4083 22.257 20.4083 21.1305V19.173C20.4091 17.7285 19.7521 16.3657 18.6511 15.5272ZM7.46256 7.8C7.46256 7.65 7.48581 7.509 7.49481 7.3635L11.1803 8.96925C11.4406 9.0825 11.7203 9.1395 12.0001 9.1395C12.2798 9.1395 12.5596 9.08325 12.8206 8.96925L16.5188 7.35825C16.5278 7.50525 16.5376 7.6515 16.5376 7.8C16.5376 10.9095 14.5021 13.44 12.0001 13.44C9.49806 13.44 7.46256 10.9095 7.46256 7.8ZM10.4476 14.8995C10.9523 14.829 11.4691 14.79 11.9963 14.79C12.5213 14.79 13.0373 14.829 13.5398 14.8987L11.9956 17.3332L10.4476 14.8995Z" fill="#1F7BF4"/>
</svg>
